<?xml version="1.0" standalone="no"?>
<!DOCTYPE svg PUBLIC "-//W3C//DTD SVG 20010904//EN"
 "http://www.w3.org/TR/2001/REC-SVG-20010904/DTD/svg10.dtd">
<svg version="1.0" xmlns="http://www.w3.org/2000/svg"
 width="256.000000pt" height="256.000000pt" viewBox="0 0 256.000000 256.000000"
 preserveAspectRatio="xMidYMid meet">

<g transform="translate(0.000000,256.000000) scale(0.100000,-0.100000)"
fill="#000000" stroke="none">
<path d="M955 2360 c-3 -11 -10 -20 -15 -20 -5 0 -7 7 -4 15 7 18 -21 10 -125
-34 -416 -177 -677 -561 -698 -1026 -8 -193 18 -328 98 -502 161 -352 489
-606 869 -674 104 -18 336 -16 428 5 176 39 320 103 464 206 331 236 502 607
468 1016 -9 120 -15 134 -55 134 -17 0 -17 -2 -5 -10 8 -5 11 -10 5 -10 -22 0
-38 19 -32 39 3 12 2 21 -3 21 -4 0 -15 26 -24 58 -39 141 -153 328 -271 446
-185 185 -421 291 -699 316 -95 8 -256 0 -321 -16 -15 -4 -25 -2 -25 5 0 6 8
8 18 4 14 -5 13 -3 -3 10 -18 14 -21 14 -27 -1 -4 -10 -7 -12 -7 -4 -1 7 -7
20 -15 28 -13 12 -15 11 -21 -6z m939 -326 c10 -27 7 -334 -4 -355 -16 -29
-29 -24 -95 36 l-59 55 -141 -138 c-189 -187 -196 -192 -256 -192 -48 0 -52 2
-136 80 -47 45 -90 79 -94 78 -5 -2 -57 -48 -116 -102 -60 -55 -93 -84 -75
-65 18 20 29 39 25 44 -5 4 -3 5 4 1 6 -3 14 -2 17 2 7 12 -37 49 -51 45 -7
-3 -29 0 -49 6 -31 9 -42 8 -58 -6 -12 -10 33 38 99 106 66 67 132 129 147
137 61 32 101 16 211 -86 l69 -63 141 141 142 142 -59 59 c-88 89 -86 91 143
91 163 0 190 -2 195 -16z m20 -486 c17 -23 21 -102 10 -170 -6 -36 -9 -38 -43
-38 -92 0 -221 -41 -273 -88 -17 -14 -18 -10 -18 85 l0 100 69 66 69 67 85 0
c77 0 87 -2 101 -22z m-474 -284 c13 -33 12 -141 0 -224 -6 -36 -13 -89 -17
-117 -3 -29 -9 -53 -13 -53 -4 0 -12 -19 -18 -42 -40 -153 -54 -221 -50 -243
l5 -25 -113 0 -114 0 0 353 c0 261 3 356 12 365 8 8 57 12 155 12 l143 0 10
-26z m584 -43 c81 -40 156 -119 187 -199 28 -71 31 -207 6 -262 -9 -19 -16
-27 -17 -18 0 20 -36 42 -56 34 -7 -3 -13 0 -11 6 1 6 -4 13 -12 16 -9 3 -11
0 -7 -7 4 -6 -13 0 -38 14 l-46 26 0 -33 c0 -61 -32 -96 -112 -122 -11 -3 -18
-15 -18 -30 0 -24 -20 -35 -52 -28 -11 2 -18 13 -18 27 0 19 -8 27 -38 36 -21
6 -49 19 -62 29 -21 16 -23 22 -15 46 15 40 39 52 64 30 40 -36 151 -33 151 4
0 24 -33 46 -85 55 -63 11 -106 35 -121 69 -10 24 -13 26 -14 11 0 -15 -7 -21
-24 -21 -14 0 -22 4 -20 8 3 5 -7 6 -23 1 -29 -7 -40 -7 -86 1 -19 3 -30 0
-34 -10 -3 -8 -10 -14 -15 -14 -19 0 1 103 32 167 45 92 139 168 237 193 21 5
70 8 110 6 57 -2 86 -10 137 -35z m-1046 -193 c7 -7 11 -35 11 -62 -1 -28 -4
-41 -6 -29 -5 29 -79 80 -105 75 -5 -1 -8 4 -8 11 0 8 -4 7 -10 -3 -6 -9 -10
-10 -10 -3 0 8 -24 13 -67 16 -41 2 -17 4 57 5 87 1 130 -2 138 -10z"/>
</g>
</svg>
